<svg width="207" height="53" viewBox="0 0 207 53" fill="none" xmlns="http://www.w3.org/2000/svg">
<rect width="207" height="53" fill="#202445"/>
<path d="M48.15 22.15C47.57 20.93 46.73 19.99 45.63 19.33C44.53 18.65 43.25 18.31 41.79 18.31C40.33 18.31 39.01 18.65 37.83 19.33C36.67 19.99 35.75 20.95 35.07 22.21C34.41 23.45 34.08 24.89 34.08 26.53C34.08 28.17 34.41 29.61 35.07 30.85C35.75 32.09 36.67 33.05 37.83 33.73C39.01 34.39 40.33 34.72 41.79 34.72C43.83 34.72 45.51 34.11 46.83 32.89C48.15 31.67 48.92 30.02 49.14 27.94H40.8V25.72H52.05V27.82C51.89 29.54 51.35 31.12 50.43 32.56C49.51 33.98 48.3 35.11 46.8 35.95C45.3 36.77 43.63 37.18 41.79 37.18C39.85 37.18 38.08 36.73 36.48 35.83C34.88 34.91 33.61 33.64 32.67 32.02C31.75 30.4 31.29 28.57 31.29 26.53C31.29 24.49 31.75 22.66 32.67 21.04C33.61 19.4 34.88 18.13 36.48 17.23C38.08 16.31 39.85 15.85 41.79 15.85C44.01 15.85 45.97 16.4 47.67 17.5C49.39 18.6 50.64 20.15 51.42 22.15H48.15ZM62.8296 37.27C61.2896 37.27 59.8896 36.92 58.6296 36.22C57.3896 35.52 56.4096 34.53 55.6896 33.25C54.9896 31.95 54.6396 30.45 54.6396 28.75C54.6396 27.07 54.9996 25.59 55.7196 24.31C56.4596 23.01 57.4596 22.02 58.7196 21.34C59.9796 20.64 61.3896 20.29 62.9496 20.29C64.5096 20.29 65.9196 20.64 67.1796 21.34C68.4396 22.02 69.4296 23 70.1496 24.28C70.8896 25.56 71.2596 27.05 71.2596 28.75C71.2596 30.45 70.8796 31.95 70.1196 33.25C69.3796 34.53 68.3696 35.52 67.0896 36.22C65.8096 36.92 64.3896 37.27 62.8296 37.27ZM62.8296 34.87C63.8096 34.87 64.7296 34.64 65.5896 34.18C66.4496 33.72 67.1396 33.03 67.6596 32.11C68.1996 31.19 68.4696 30.07 68.4696 28.75C68.4696 27.43 68.2096 26.31 67.6896 25.39C67.1696 24.47 66.4896 23.79 65.6496 23.35C64.8096 22.89 63.8996 22.66 62.9196 22.66C61.9196 22.66 60.9996 22.89 60.1596 23.35C59.3396 23.79 58.6796 24.47 58.1796 25.39C57.6796 26.31 57.4296 27.43 57.4296 28.75C57.4296 30.09 57.6696 31.22 58.1496 32.14C58.6496 33.06 59.3096 33.75 60.1296 34.21C60.9496 34.65 61.8496 34.87 62.8296 34.87Z" fill="#FEFFFF"/>
<path d="M185.061 28.0607C185.646 27.4749 185.646 26.5251 185.061 25.9393L175.515 16.3934C174.929 15.8076 173.979 15.8076 173.393 16.3934C172.808 16.9792 172.808 17.9289 173.393 18.5147L181.879 27L173.393 35.4853C172.808 36.0711 172.808 37.0208 173.393 37.6066C173.979 38.1924 174.929 38.1924 175.515 37.6066L185.061 28.0607ZM84 28.5H184V25.5H84V28.5Z" fill="#FEFFFF"/>
</svg>
