<svg width="100" height="100" viewBox="0 0 100 100" fill="none" xmlns="http://www.w3.org/2000/svg">
<g id="Group 147">
<circle id="Ellipse 36" cx="50" cy="50" r="50" fill="white"/>
<path id="Vector" fill-rule="evenodd" clip-rule="evenodd" d="M9.52149 20.5235C3.31722 29.0868 -0.0169367 39.4074 6.46979e-05 49.9964C-0.0159495 60.5853 3.31811 70.9056 9.52149 79.4693C14.2076 76.3027 17.9913 71.9653 20.5001 66.8842C23.1127 61.642 24.4655 55.8582 24.4501 49.9964C24.4634 44.1349 23.1107 38.3516 20.5001 33.1086C17.9913 28.0276 14.2076 23.6901 9.52149 20.5235ZM15.4215 13.7325C20.9524 17.6955 25.4309 22.9598 28.4643 29.0642C31.7001 35.4823 33.3786 42.6891 33.3786 49.9964C33.3946 57.266 31.7114 64.438 28.4643 70.9358C25.4299 77.0376 20.9516 82.2994 15.4215 86.2603C23.6094 94.1465 34.2331 98.9911 45.5358 99.9928V0C33.8929 1.03263 23.3929 6.07386 15.4215 13.7325ZM54.4644 100C65.768 98.9963 76.3917 94.1492 84.5786 86.2603C79.0477 82.2974 74.5692 77.033 71.5358 70.9286C68.2898 64.433 66.6067 57.2636 66.6215 49.9964C66.6215 42.682 68.3001 35.4823 71.5358 29.057C74.5682 22.956 79.044 17.6943 84.5715 13.7325C76.3873 5.84924 65.7692 1.00492 54.4715 0V99.9928L54.4644 100ZM100 49.9964C100.017 60.5854 96.6829 70.9061 90.4786 79.4693C85.7925 76.3027 82.0088 71.9653 79.5001 66.8842C76.8874 61.642 75.5346 55.8582 75.5501 49.9964C75.5501 44.0588 76.9143 38.2359 79.5001 33.1086C82.0088 28.0276 85.7925 23.6901 90.4786 20.5235C96.6829 29.0868 100.017 39.4074 100 49.9964Z" fill="#FF9900"/>
</g>
</svg>
