<svg width="169" height="242" viewBox="0 0 169 242" fill="none" xmlns="http://www.w3.org/2000/svg">
<g id="Group 153">
<g id="Group 154">
<rect id="Rectangle 57" y="219" width="221.746" height="132" rx="2.85061" transform="rotate(-80 0 219)" fill="#F8EC7A"/>
<g id="Group">
<path id="Vector" d="M123.516 128.563C125.354 118.142 122.976 107.417 116.907 98.749C110.837 90.0807 101.572 84.1785 91.151 82.3409C80.7296 80.5033 70.0051 82.8809 61.3367 88.9506C52.6683 95.0202 46.7661 104.285 44.9286 114.706M123.516 128.563C121.679 138.985 115.776 148.249 107.108 154.319C98.4397 160.389 87.7152 162.766 77.2938 160.929C66.8725 159.091 57.6079 153.189 51.5382 144.52C45.4686 135.852 43.091 125.128 44.9286 114.706M123.516 128.563L44.9286 114.706" stroke="#FEFFFF" stroke-width="2.43135" stroke-linecap="round" stroke-linejoin="round"/>
<path id="Vector_2" d="M104.81 155.807C102.893 150.903 99.7467 146.575 95.6739 143.238C91.6011 139.902 86.7384 137.669 81.5534 136.755C76.3684 135.841 71.0354 136.276 66.067 138.018C61.0986 139.76 56.662 142.751 53.1836 146.704M63.6297 87.4606C65.5466 92.3643 68.6926 96.6924 72.7655 100.029C76.8383 103.365 81.701 105.598 86.886 106.512C92.071 107.427 97.404 106.992 102.372 105.249C107.341 103.507 111.777 100.516 115.256 96.5637" stroke="#FEFFFF" stroke-width="2.43135" stroke-linecap="round" stroke-linejoin="round"/>
</g>
</g>
</g>
</svg>
