<svg width="166" height="240" viewBox="0 0 166 240" fill="none" xmlns="http://www.w3.org/2000/svg">
<g id="Group 150">
<rect id="Rectangle 56" y="218.942" width="221.782" height="132.021" rx="10" transform="rotate(-80.8221 0 218.942)" fill="#FC2B5D"/>
<path id="Vector" d="M43.6468 114.13C43.4116 115.691 43.2732 117.284 43.2202 118.875C44.2257 116.23 45.6178 113.614 47.383 111.11C48.6385 109.339 50.0543 107.628 51.6471 105.98C51.7329 104.922 51.8493 103.886 51.9961 102.872C52.1724 101.676 52.3765 100.518 52.6469 99.371C53.3472 96.405 54.3576 93.6251 55.6811 91.117C49.5188 96.9432 45.394 104.579 43.8724 112.839C43.7835 113.284 43.7219 113.665 43.6468 114.13ZM44.9636 124.294L44.8404 125.057C44.7102 126.074 44.6462 127.101 44.6705 128.109C46.2661 125.917 48.6867 123.671 51.7613 121.378L52.6469 120.738C51.9652 117.379 51.5845 114.051 51.5246 110.843C50.9539 111.533 50.4356 112.215 49.9478 112.919C47.3219 116.646 45.6268 120.506 44.9636 124.294ZM45.8822 134.293C46.2669 135.07 47.3028 135.815 49.3697 136.285C51.5002 136.783 54.5579 136.92 58.1943 136.622C57.2021 134.659 56.2922 132.606 55.4813 130.468C54.6687 128.329 53.9764 126.193 53.4168 124.078C50.4936 126.277 48.3152 128.391 47.0405 130.176C46.3799 131.107 46.0139 131.898 45.8239 132.548C45.6545 133.133 45.6936 133.786 45.8822 134.293ZM48.9655 139.418C52.2001 143.187 57.0578 145.867 63.0069 147.255C63.8262 147.447 64.6832 147.616 65.5616 147.758C63.474 145.311 61.5495 142.591 59.8209 139.607C59.4567 139.65 59.0926 139.694 58.7312 139.72C54.9183 140.057 51.6125 139.982 48.9655 139.418ZM55.1967 102.641C57.7366 100.5 60.5603 98.506 63.6347 96.7401C63.5771 96.2545 63.5195 95.7689 63.4785 95.2859C63.1407 91.6928 63.161 88.5148 63.736 85.9027L63.7387 85.8862C59.8666 89.1053 57.1142 94.0365 55.7114 100.087C55.5085 100.922 55.3387 101.762 55.1967 102.641ZM54.7092 107.343C54.5283 110.988 54.7709 114.855 55.4748 118.814C58.8387 116.635 62.7446 114.459 67.0429 112.381C65.7798 108.094 64.7851 103.935 64.1314 100.087C60.5676 102.25 57.3957 104.715 54.7092 107.343ZM56.1828 122.126C56.7493 124.514 57.4981 126.932 58.4153 129.36C59.3353 131.771 60.376 134.066 61.5377 136.244C65.5896 135.691 70.2025 134.718 75.1224 133.318C73.1118 129.132 71.2852 124.753 69.6987 120.363C69.0972 118.718 68.5315 117.061 67.999 115.41C63.5135 117.595 59.5033 119.89 56.1828 122.126ZM54.025 147.27C61.2402 154.926 71.2622 159.421 81.7734 159.729C79.1274 158.738 76.5133 157.34 74.0255 155.58C72.2546 154.331 70.5305 152.897 68.8831 151.304C66.5986 151.129 64.39 150.799 62.2761 150.305C59.3097 149.613 56.5321 148.594 54.025 147.27ZM66.6415 87.3929C66.3312 89.4183 66.3192 92.0192 66.6043 94.9913C66.6128 95.0438 66.6213 95.0962 66.616 95.1293C68.502 94.1922 70.4603 93.3347 72.4907 92.557C74.6285 91.7456 76.7615 91.0695 78.8924 90.5121C76.6948 87.5882 74.567 85.3901 72.7832 84.1152C70.9802 82.8541 69.7259 82.6175 68.9019 82.8756C68.0046 83.3771 67.2428 84.5129 66.792 86.5666C66.7491 86.8319 66.687 87.1111 66.6415 87.3929ZM67.049 98.4486C67.6365 102.286 68.6263 106.58 69.9316 111.027C72.5727 109.838 75.3272 108.684 78.2089 107.584C81.2723 106.412 84.3117 105.389 87.2468 104.485C85.1614 100.235 82.9678 96.4443 80.8296 93.2578C78.4422 93.8248 76.0252 94.5741 73.5981 95.4919C71.3142 96.3648 69.1303 97.3559 67.049 98.4486ZM63.2247 139.17C65.3227 142.606 67.7044 145.653 70.2606 148.252C74.3093 148.455 78.6143 148.125 83.0449 147.228C82.6446 146.653 82.2454 146.071 81.867 145.466C80.0009 142.595 78.2081 139.482 76.5303 136.182C71.7869 137.543 67.2873 138.551 63.2247 139.17ZM74.8499 81.7441C77.0383 83.3566 79.2831 85.7778 81.5753 88.8531C81.7838 89.1419 81.9922 89.4308 82.2172 89.7223C85.5757 89.0401 88.8998 88.6755 92.1094 88.5987C91.4167 88.0444 90.7351 87.526 90.0344 87.0215C85.0572 83.5124 79.8149 81.6447 74.8499 81.7441ZM70.8545 114.051C71.4068 115.791 72.0061 117.555 72.644 119.291C74.2529 123.753 76.1351 128.208 78.1762 132.417C80.899 131.564 83.7068 130.605 86.55 129.533C89.7044 128.325 92.7369 127.029 95.6037 125.705C94.6947 122.701 93.6472 119.605 92.4394 116.45L92.4281 116.414C91.223 113.242 89.944 110.212 88.6216 107.344C85.601 108.251 82.4872 109.313 79.3163 110.519C76.3795 111.644 73.5342 112.834 70.8545 114.051ZM84.0948 80.3117C86.7411 81.3007 89.3562 82.6929 91.8434 84.4557C93.6133 85.7114 95.3206 87.1441 96.9679 88.7372C99.2541 88.9024 101.478 89.2447 103.575 89.7366C106.559 90.4229 109.335 91.4499 111.843 92.7737C104.629 85.1094 94.6068 80.6151 84.0948 80.3117ZM73.7595 151.437C74.4349 151.994 75.1317 152.523 75.8341 153.018C81.5593 157.054 87.6045 158.9 93.2064 158.121C90.3664 156.226 87.656 153.424 85.0447 150.008C81.1959 150.883 77.4119 151.357 73.7595 151.437ZM84.1384 92.5676C86.2215 95.7792 88.3097 99.485 90.3172 103.586C94.6997 102.355 98.8602 101.445 102.644 100.865C100.544 97.4467 98.1632 94.3912 95.6083 91.7839C91.9641 91.6034 88.0957 91.863 84.1384 92.5676ZM79.5868 135.264C81.1556 138.291 82.8009 141.159 84.4891 143.763C85.1036 144.696 85.7235 145.596 86.3488 146.462C88.3059 145.928 90.279 145.294 92.2543 144.541C94.6788 143.64 96.9755 142.582 99.1531 141.42C98.6293 137.609 97.7388 133.332 96.4716 128.755C93.6791 130.039 90.7236 131.28 87.6601 132.452C84.9244 133.49 82.2214 134.431 79.5868 135.264ZM91.6727 106.459C92.9534 109.269 94.1934 112.225 95.3649 115.289C96.5338 118.37 97.5588 121.394 98.462 124.33C102.711 122.243 106.514 120.068 109.683 117.926C109.12 115.521 108.371 113.104 107.451 110.692C106.531 108.281 105.493 105.97 104.315 103.789C100.522 104.316 96.2456 105.207 91.6727 106.459ZM88.3989 149.141C91.5092 152.942 94.6564 155.673 97.5088 156.86C98.1492 156.37 98.7852 155.38 99.1924 153.597C99.6914 151.455 99.8084 148.416 99.5145 144.762C97.5514 145.754 95.4969 146.681 93.3756 147.495C91.7115 148.111 90.0574 148.666 88.3989 149.141ZM100.306 92.2876C102.377 94.7318 104.317 97.4609 106.048 100.429C106.412 100.385 106.774 100.359 107.135 100.332C110.948 99.9954 114.252 100.07 116.899 100.634C113.682 96.8645 108.811 94.1721 102.861 92.7856C102.043 92.5854 101.184 92.4296 100.306 92.2876ZM99.3603 127.401C100.591 131.785 101.5 135.947 102.079 139.732C105.497 137.63 108.551 135.249 111.158 132.693C111.339 129.047 111.094 125.197 110.392 121.222C107.179 123.323 103.458 125.409 99.3603 127.401ZM107.672 103.43C108.664 105.394 109.574 107.446 110.388 109.568C111.199 111.706 111.874 113.84 112.448 115.974C115.354 113.773 117.549 111.661 118.827 109.86C120.041 108.133 120.328 106.887 120.105 106.051C120.072 105.944 120.021 105.834 119.985 105.743C119.598 104.983 118.562 104.237 116.498 103.75C114.367 103.253 111.308 103.133 107.672 103.43ZM102.515 143.137C102.558 143.501 102.585 143.863 102.628 144.227C102.948 148.038 102.873 151.34 102.308 153.998C106.095 150.768 108.769 145.9 110.153 139.965C110.356 139.13 110.512 138.27 110.654 137.392C108.208 139.48 105.482 141.405 102.515 143.137ZM113.204 119.294C113.899 122.673 114.266 125.982 114.343 129.192C114.894 128.516 115.432 127.82 115.92 127.117C119.428 122.137 121.296 116.893 121.197 111.927C119.585 114.116 117.181 116.364 114.089 118.655C113.817 118.866 113.509 119.089 113.204 119.294ZM110.183 148.935C117.829 141.715 122.34 131.692 122.644 121.177C121.655 123.824 120.247 126.438 118.484 128.926C117.229 130.696 115.81 132.424 114.218 134.072C114.036 136.356 113.696 138.564 113.218 140.681C112.517 143.647 111.49 146.424 110.183 148.935Z" fill="white"/>
</g>
</svg>
