<svg width="100" height="100" viewBox="0 0 100 100" fill="none" xmlns="http://www.w3.org/2000/svg">
<g id="Group 148">
<circle id="Ellipse 35" cx="50" cy="50" r="50" fill="white"/>
<path id="Vector" d="M50 0C40.1109 0 30.444 2.93245 22.2215 8.42652C13.999 13.9206 7.59043 21.7295 3.80605 30.8658C0.0216642 40.0021 -0.968502 50.0555 0.960758 59.7545C2.89002 69.4536 7.65206 78.3627 14.6447 85.3553C21.6373 92.3479 30.5464 97.11 40.2455 99.0392C49.9445 100.968 59.9979 99.9783 69.1342 96.194C78.2705 92.4096 86.0794 86.0009 91.5735 77.7785C97.0676 69.556 100 59.8891 100 50C99.986 36.7435 94.7137 24.0339 85.3399 14.6601C75.9661 5.28633 63.2565 0.0139991 50 0ZM53.8462 18.9327L65.7644 10.7356C72.5881 13.4843 78.5816 17.9571 83.1587 23.7163L79.3125 36.6683C79.2164 36.6683 79.1154 36.7163 79.0192 36.75L68.0481 40.3125C67.8835 40.3651 67.7228 40.4294 67.5673 40.5048L53.8462 31.0673V19.2308V18.9327ZM34.25 10.7356L46.1539 18.9327V31.0673L32.4231 40.524C32.2676 40.4486 32.1069 40.3844 31.9423 40.3317L20.9712 36.7692C20.875 36.7356 20.7741 36.7115 20.6779 36.6875L16.8317 23.7356C21.4131 17.9659 27.4154 13.4861 34.25 10.7356ZM28 72.7981H14.375C10.3867 66.597 8.10022 59.4557 7.74521 52.0913L18.3221 43.976C18.4131 44.0162 18.5062 44.0515 18.601 44.0817L29.5769 47.649C29.7237 47.6934 29.873 47.7287 30.0241 47.7548L35.2116 62.8606C35.1394 62.9471 35.0673 63.0336 35 63.125L28.2212 72.4567C28.1413 72.5664 28.0675 72.6804 28 72.7981ZM60.9087 90.8654C53.7608 92.7692 46.2392 92.7692 39.0914 90.8654L34.2548 77.2115C34.3173 77.1346 34.3846 77.0625 34.4423 76.9808L41.226 67.6442C41.3058 67.5362 41.3796 67.4238 41.4471 67.3077H58.5529C58.6204 67.4238 58.6942 67.5362 58.774 67.6442L65.5577 76.9808C65.6154 77.0625 65.6827 77.1346 65.7452 77.2115L60.9087 90.8654ZM72 72.7836C71.9325 72.6659 71.8587 72.552 71.7789 72.4423L64.9952 63.125C64.9279 63.0336 64.8558 62.9471 64.7837 62.8606L69.9712 47.7548C70.1222 47.7287 70.2715 47.6934 70.4183 47.649L81.3942 44.0817C81.489 44.0515 81.5821 44.0162 81.6731 43.976L92.25 52.0913C91.895 59.4557 89.6085 66.597 85.6202 72.7981L72 72.7836Z" fill="black"/>
</g>
</svg>
