<svg width="100" height="100" viewBox="0 0 100 100" fill="none" xmlns="http://www.w3.org/2000/svg">
<g id="Group 149">
<circle id="Ellipse 37" cx="50" cy="50" r="50" fill="white"/>
<path id="Vector" d="M42.1554 0C18.2522 3.78182 4.45577e-06 24.57 4.45577e-06 49.6918C-0.0012461 52.6843 0.260743 55.6711 0.782905 58.6171C10.2465 61.5376 17.9708 63.4896 24.663 62.7121C28.7766 62.2342 32.611 60.7919 36.4316 57.8195C34.9686 55.3642 34.1969 52.5546 34.1991 49.6918C34.1991 45.758 35.6346 42.153 38.0013 39.3721C34.584 30.639 33.3314 22.9686 34.1333 16.2896C34.9121 9.80116 37.7128 4.33391 42.1554 0ZM48.0381 0.368056C42.261 4.4648 38.8961 9.8384 38.0509 16.8796C37.395 22.3421 38.3422 28.8939 41.1504 36.5333C42.6282 35.5221 44.2663 34.7716 45.9946 34.3139C45.2522 28.8372 45.9387 24.027 47.8409 19.6069C50.518 13.387 55.3297 8.0345 61.3474 2.263C59.5606 2.68114 57.7574 3.03439 56.0584 3.18139C53.7058 3.3848 51.5626 3.38676 49.7294 2.27781C49.0342 1.85748 48.4065 1.17974 48.0381 0.367837V0.368056ZM66.8595 2.31309C59.6227 9.09184 54.0874 14.8429 51.4128 21.0578C49.7628 24.8921 49.0881 28.9666 49.7455 33.7999C49.8305 33.7986 49.9147 33.7936 50 33.7936C56.8448 33.7936 62.6939 38.2118 64.881 44.3579C74.0833 45.7488 81.2961 48.4897 86.6346 52.5208C91.8654 56.4708 95.1792 61.6887 96.6736 67.7799C98.8208 62.1676 100 56.0701 100 49.6918C100 27.8387 86.1879 9.26628 66.8595 2.31309ZM50 37.7137C43.4019 37.7137 38.0952 43.0531 38.0952 49.6918C38.0952 56.3306 43.4019 61.67 50 61.67C56.598 61.67 61.9048 56.3306 61.9048 49.6918C61.9048 43.0531 56.598 37.7137 50 37.7137ZM50 40.7627C54.8781 40.7627 58.8745 44.7836 58.8745 49.6918C58.8745 54.6 54.8781 58.621 50 58.621C45.1219 58.621 41.1255 54.6 41.1255 49.6918C41.1255 44.7836 45.1219 40.7627 50 40.7627ZM50 44.6828C47.2273 44.6828 45.0216 46.902 45.0216 49.6918C45.0216 52.4817 47.2273 54.7009 50 54.7009C52.7727 54.7009 54.9784 52.4817 54.9784 49.6918C54.9784 46.902 52.7727 44.6828 50 44.6828ZM65.7502 48.4801C65.7805 48.8806 65.8009 49.2837 65.8009 49.6918C65.8009 51.1249 65.6074 52.5137 65.2511 53.8363C70.284 55.9257 74.0478 58.9148 76.8816 62.7558C80.8968 68.1983 83.0978 75.0681 85.0565 83.1975C85.59 81.4313 86.1877 79.6833 86.9106 78.1297C87.9119 75.978 88.982 74.1094 90.8528 73.0666C91.5623 72.6711 92.4595 72.4621 93.3424 72.5468C92.7045 65.4649 89.7621 59.8469 84.1242 55.5899C79.7675 52.3 73.6844 49.8556 65.7502 48.4801ZM63.813 57.392C61.1108 62.2739 55.9294 65.5901 50 65.5901C49.0009 65.5901 48.0242 65.4919 47.0758 65.312C41.2855 72.6167 35.3286 77.5205 29.1987 80.1527C23.1924 82.7319 17.0535 83.0137 11.0714 81.279C20.2331 92.6999 34.2597 100 50 100C62.3277 100 73.6039 95.5206 82.316 88.0929C80.0946 78.3657 77.9121 70.6444 73.8907 65.1937C71.4258 61.8525 68.2725 59.2351 63.813 57.392ZM38.7229 60.8056C34.4054 64.1501 29.9481 65.9377 25.2219 66.4867C18.5299 67.2642 11.5173 65.7475 3.54091 63.3898C4.79416 64.7375 5.99979 66.1319 6.97554 67.5386C8.32684 69.4869 9.39979 71.3535 9.36191 73.5052C9.34762 74.3211 9.07879 75.2077 8.56451 75.9344C14.9792 78.9196 21.2864 79.165 27.7695 76.3809C32.7701 74.2335 37.9052 70.1657 43.0465 63.9598C41.4389 63.1611 39.9771 62.0946 38.7229 60.8054V60.8056Z" fill="#FC2B5D"/>
</g>
</svg>
